<svg width="11" height="29" viewBox="0 0 11 29" fill="none" xmlns="http://www.w3.org/2000/svg">
    <g clip-path="url(#clip0_4_825)">
        <path
            d="M1.76416 22C1.55083 22 1.36847 21.926 1.21708 21.7781C1.06569 21.6301 0.98999 21.4495 0.98999 21.2362C0.98999 21.0228 1.06913 20.837 1.2274 20.6788L5.39758 16.5189L1.2274 12.359C1.06913 12.2008 0.98999 12.015 0.98999 11.8016C0.98999 11.5883 1.06569 11.4077 1.21708 11.2597C1.36847 11.1118 1.55083 11.0378 1.76416 11.0378C1.96372 11.0378 2.14264 11.1101 2.30091 11.2546L7.00784 15.9409C7.173 16.0922 7.25558 16.2849 7.25558 16.5189C7.25558 16.7391 7.173 16.9318 7.00784 17.0969L2.30091 21.7832C2.1564 21.9277 1.97748 22 1.76416 22Z"
            fill="#2997FF" />
    </g>
    <defs>
        <clipPath id="clip0_4_825">
            <rect width="9.51" height="29" fill="white" transform="matrix(1 0 0 -1 0.98999 29)" />
        </clipPath>
    </defs>
</svg>
    